<?xml version="1.0" encoding="UTF-8"?>
<svg version="1.1" xmlns="http://www.w3.org/2000/svg" width="500" height="490">
<path d="M0 0 C165 0 330 0 500 0 C500 161.7 500 323.4 500 490 C335 490 170 490 0 490 C0 328.3 0 166.6 0 0 Z " fill="#FEFEFE" transform="translate(0,0)"/>
<path d="M0 0 C36.3 0 72.6 0 110 0 C110 79.53 110 159.06 110 241 C126.5 241 143 241 160 241 C160 161.47 160 81.94 160 0 C196.3 0 232.6 0 270 0 C270 79.53 270 159.06 270 241 C286.5 241 303 241 320 241 C320 161.47 320 81.94 320 0 C356.3 0 392.6 0 430 0 C430 79.86 430 159.72 430 242 C403.6 242 377.2 242 350 242 C350 284.57 350 327.14 350 371 C313.7 371 277.4 371 240 371 C240 328.43 240 285.86 240 242 C223.5 242 207 242 190 242 C190 284.57 190 327.14 190 371 C153.7 371 117.4 371 80 371 C80 328.43 80 285.86 80 242 C53.6 242 27.2 242 0 242 C0 162.14 0 82.28 0 0 Z " fill="#010101" transform="translate(34,72)"/>
</svg>
